<?xml version="1.0" standalone="no"?> <!DOCTYPE svg PUBLIC "-//W3C//DTD SVG 20010904//EN" "http://www.w3.org/TR/2001/REC-SVG-20010904/DTD/svg10.dtd"> <svg version="1.0" xmlns="http://www.w3.org/2000/svg" width="600.000000pt" height="327.000000pt" viewBox="0 0 600.000000 327.000000" preserveAspectRatio="xMidYMid meet"> <g transform="translate(0.000000,327.000000) scale(0.100000,-0.100000)" fill="#ba9d7a" stroke="none"> <path d="M2360 2542 c0 -5 9 -17 19 -29 111 -118 112 -354 4 -499 -33 -44 -31 -48 50 -89 72 -38 103 -57 207 -130 188 -131 369 -317 406 -418 66 -177 69 -235 23 -382 -44 -142 -72 -158 -111 -67 -51 116 -53 126 -52 222 0 92 10 139 42 208 14 32 14 35 -14 74 -16 23 -34 43 -41 45 -16 6 -50 -49 -64 -102 -6 -22 -16 -46 -22 -54 -7 -8 -13 -68 -15 -145 -4 -136 20 -248 62 -295 29 -32 4 -45 -70 -38 -74 7 -85 15 -174 126 -19 24 -50 62 -69 85 -125 153 -199 325 -208 484 -7 122 -7 122 88 51 134 -99 212 -201 275 -358 20 -50 32 -39 33 30 1 19 8 56 17 81 15 46 15 47 -13 89 -15 23 -33 51 -40 62 -42 72 -210 209 -346 281 -82 43 -91 44 -105 9 -108 -275 17 -618 363 -990 l67 -73 183 0 184 0 36 45 c179 217 186 505 19 756 -90 135 -255 285 -474 429 -52 34 -94 65 -93 69 1 3 14 38 28 76 25 67 33 248 14 315 -3 13 51 15 429 17 l434 1 -8 -61 c-14 -108 -7 -195 23 -279 15 -42 25 -79 23 -80 -3 -2 -45 -30 -95 -62 -102 -67 -231 -163 -268 -200 -15 -14 -30 -26 -35 -26 -23 0 -18 -31 11 -69 34 -44 47 -49 67 -26 50 61 307 243 429 304 56 29 74 52 52 66 -5 3 -20 25 -34 49 -82 147 -78 326 9 449 19 26 34 49 34 52 0 3 -288 5 -640 5 -352 0 -640 -4 -640 -8z"/> <path d="M2905 2292 c-88 -29 -162 -88 -198 -157 -19 -38 -50 -125 -46 -129 26 -20 119 -86 122 -86 2 0 7 31 9 70 8 113 72 179 181 187 144 12 237 -66 237 -197 0 -62 11 -64 78 -10 50 39 50 40 41 77 -48 185 -251 302 -424 245z"/> <path d="M3665 1780 c-154 -81 -293 -196 -370 -307 -51 -72 -51 -73 -28 -196 l16 -90 20 44 c11 24 29 64 40 89 42 93 148 209 263 290 69 48 74 44 67 -65 -12 -181 -104 -362 -304 -599 -72 -87 -83 -96 -114 -96 -37 0 -39 -2 -90 -75 l-35 -50 97 -3 98 -3 65 68 c340 356 466 684 373 976 -17 55 -23 56 -98 17z"/> </g> </svg>